<?xml version="1.0" encoding="utf-8"?>
<!-- Generator: Adobe Illustrator 16.0.0, SVG Export Plug-In . SVG Version: 6.00 Build 0)  -->
<!DOCTYPE svg PUBLIC "-//W3C//DTD SVG 1.1//EN" "http://www.w3.org/Graphics/SVG/1.1/DTD/svg11.dtd">
<svg version="1.1" id="Layer_1" xmlns="http://www.w3.org/2000/svg" xmlns:xlink="http://www.w3.org/1999/xlink" x="0px" y="0px"
	 width="100.043px" height="51.024px" viewBox="0 0 100.043 51.024" enable-background="new 0 0 100.043 51.024"
	 xml:space="preserve">
<path fill-rule="evenodd" clip-rule="evenodd" d="M29.233,17.828c0-0.01,0-0.021-0.002-0.031c-0.013-0.197-0.164-0.383-0.298-0.449
	c-0.116-0.057-0.347-0.031-0.573,0.031c0.055,0.066,0.101,0.135,0.129,0.186l0.032,0.054l0.046,0.1
	c0.03,0.08,0.076,0.189,0.166,0.277h0.459C29.219,17.943,29.233,17.889,29.233,17.828L29.233,17.828z"/>
<path fill-rule="evenodd" clip-rule="evenodd" d="M28.427,17.771l-0.03-0.068l-0.039-0.064c-0.04-0.074-0.099-0.178-0.207-0.262
	l-0.042-0.029c-0.131-0.068-0.753-0.145-1.164-0.014c0.074,0.076,0.135,0.162,0.173,0.227l0.033,0.058l0.046,0.098
	c0.03,0.082,0.076,0.191,0.167,0.279h1.179C28.486,17.914,28.45,17.832,28.427,17.771L28.427,17.771z"/>
<path fill-rule="evenodd" clip-rule="evenodd" d="M27.056,17.771l-0.029-0.07v0.002l-0.04-0.068
	c-0.049-0.086-0.116-0.205-0.249-0.287c-0.131-0.068-0.753-0.145-1.164-0.014c0.076,0.078,0.137,0.162,0.175,0.229l0.03,0.056
	l0.046,0.1c0.031,0.08,0.077,0.189,0.167,0.277h1.18C27.114,17.914,27.078,17.83,27.056,17.771L27.056,17.771z"/>
<path fill-rule="evenodd" clip-rule="evenodd" d="M25.686,17.771l-0.03-0.068l-0.04-0.066c-0.047-0.088-0.115-0.207-0.247-0.289
	c-0.133-0.068-0.755-0.145-1.166-0.014c0.078,0.078,0.136,0.162,0.173,0.229l0.034,0.056l0.046,0.1
	c0.03,0.08,0.076,0.189,0.166,0.277h1.181C25.743,17.914,25.707,17.832,25.686,17.771L25.686,17.771z"/>
<path fill-rule="evenodd" clip-rule="evenodd" d="M24.314,17.771l-0.03-0.068l-0.039-0.066c-0.049-0.088-0.116-0.207-0.248-0.289
	c-0.137-0.07-0.769-0.146-1.18-0.01c0.071,0.07,0.127,0.143,0.163,0.201l0.033,0.051l0.049,0.096
	c0.039,0.092,0.102,0.223,0.247,0.311h1.12C24.372,17.914,24.336,17.832,24.314,17.771L24.314,17.771z"/>
<path fill-rule="evenodd" clip-rule="evenodd" d="M22.924,17.744l-0.032-0.064l-0.039-0.061c-0.049-0.078-0.116-0.183-0.223-0.25
	l-0.041-0.027c-0.162-0.072-0.424-0.021-0.588,0.115c-0.053,0.043-0.066,0.115-0.068,0.168v0.016c0,0.121,0.05,0.254,0.127,0.355
	h1.022C23,17.906,22.952,17.811,22.924,17.744L22.924,17.744z"/>
<path fill-rule="evenodd" clip-rule="evenodd" d="M27.255,10.266c-0.226,0.086-0.525-0.021-0.528-0.123
	c-0.008-0.178,0.268-0.27,0.399-0.113c0,0,0.162-0.328-0.25-0.33c0,0,0.179-0.242,0.016-0.436c-0.246,0.055-0.251,0.357-0.251,0.357
	c-0.336-0.229-0.396,0.111-0.396,0.111c0.198-0.045,0.348,0.199,0.269,0.33c-0.024,0.041-0.077,0.125-0.377,0.098
	c-0.087-0.008-0.214-0.033-0.325-0.088l-0.137-0.271l0.428,0.178v-0.57l-0.428,0.17l0.194-0.381h-0.152
	c0.094-0.207,0.217-0.408,0.238-0.463c0.023-0.063,0.101-0.109,0.229-0.063c0.124,0.047,1.033,0.332,1.435,0.965
	C27.672,9.722,27.483,10.178,27.255,10.266L27.255,10.266z M25.291,10.072c-0.112,0.053-0.241,0.08-0.328,0.088
	c-0.301,0.027-0.354-0.057-0.378-0.098c-0.079-0.131,0.07-0.375,0.27-0.33c0,0-0.061-0.34-0.396-0.111c0,0-0.007-0.303-0.251-0.357
	c-0.163,0.193,0.016,0.436,0.016,0.436c-0.412,0.002-0.249,0.33-0.249,0.33c0.131-0.156,0.406-0.064,0.398,0.113
	c-0.004,0.102-0.301,0.209-0.53,0.123c-0.228-0.088-0.415-0.543-0.361-0.629c0.403-0.633,1.311-0.918,1.436-0.965
	c0.126-0.047,0.205,0,0.228,0.063c0.021,0.055,0.145,0.256,0.238,0.463h-0.153l0.206,0.389l-0.441-0.178v0.57l0.441-0.188
	L25.291,10.072L25.291,10.072z M28.229,9.434c-0.818-0.98-1.832-1.305-2.504-1.377l-0.099-0.225l0.259,0.123V7.564l-0.259,0.117
	l0.116-0.26h-0.39l0.128,0.264l-0.269-0.121v0.391l0.269-0.127l-0.102,0.217c-0.672,0.029-1.69,0.404-2.509,1.389
	c-0.041,0.047-0.079,0.172-0.018,0.242c0.063,0.07,0.103,0.086,0.165,0.15c0.064,0.063,0.252,0.463,0.292,0.572
	s0.046,0.268,0.046,0.268c0,0-0.024,0.201,0.055,0.281c0.063,0.063,0.188,0.055,0.211,0.096c0.025,0.039,0.016,0.094,0.19,0.055
	c0.172-0.042,0.874-0.311,1.737-0.307c0.864,0.002,1.565,0.265,1.739,0.307c0.172,0.039,0.165-0.016,0.188-0.055
	c0.022-0.042,0.147-0.033,0.211-0.096c0.08-0.08,0.055-0.281,0.055-0.281c0,0,0.008-0.158,0.048-0.268s0.229-0.51,0.291-0.572
	c0.063-0.064,0.103-0.08,0.164-0.15C28.307,9.605,28.267,9.48,28.229,9.434L28.229,9.434z"/>
<path fill-rule="evenodd" clip-rule="evenodd" d="M26.606,13.887h1.174v1.738h-1.174V13.887L26.606,13.887z M24.981,13.887h1.175
	v1.738h-1.175V13.887L24.981,13.887z M23.355,13.887h1.176v1.738h-1.176V13.887L23.355,13.887z M23.355,11.623h1.176v1.75h-1.176
	V11.623L23.355,11.623z M25.558,11.623h0.019h0.579v1.75h-1.175v-1.75H25.558L25.558,11.623z M27.78,13.373h-1.174v-1.75h1.174
	V13.373L27.78,13.373z M25.593,11.107h-0.052H21.79v0.379c0,0,0.375-0.004,0.701,0.174c0.265,0.145,0.38,0.438,0.414,0.543v4.311
	h-0.226l0.448,0.777l0.451-0.777h-0.223v-0.375h1.176v0.375h-0.228l0.451,0.777l0.449-0.777h-0.223v-0.375h1.175v0.375h-0.225
	l0.448,0.777l0.449-0.777h-0.223v-0.375h1.174v0.375h-0.223l0.447,0.777l0.451-0.777h-0.223v-4.318
	c0.036-0.111,0.15-0.395,0.409-0.535c0.327-0.178,0.702-0.174,0.702-0.174v-0.379H25.593L25.593,11.107z"/>
<path fill-rule="evenodd" clip-rule="evenodd" d="M22.074,11.619c0-0.133,0.108-0.24,0.241-0.24c0.132,0,0.24,0.107,0.24,0.24
	s-0.108,0.24-0.24,0.24C22.183,11.859,22.074,11.752,22.074,11.619L22.074,11.619z M21.881,11.619c0,0.238,0.195,0.434,0.434,0.434
	c0.239,0,0.432-0.195,0.432-0.434s-0.193-0.432-0.432-0.432S21.881,11.381,21.881,11.619L21.881,11.619z"/>
<path fill-rule="evenodd" clip-rule="evenodd" d="M22.088,12.234c0.081,0.012,0.146,0.02,0.226,0.031
	c-0.015,0.109-0.042,0.302-0.056,0.412c-0.081-0.01-0.146-0.02-0.226-0.029C22.047,12.539,22.073,12.346,22.088,12.234
	L22.088,12.234z M21.91,12.113l-0.095,0.701l0.608,0.082l0.108-0.797l-0.609-0.082L21.91,12.113L21.91,12.113z"/>
<path fill-rule="evenodd" clip-rule="evenodd" d="M21.988,13.131c0.081,0.002,0.146,0.006,0.227,0.008
	c-0.003,0.109-0.009,0.287-0.012,0.396c-0.08-0.004-0.147-0.004-0.228-0.008C21.979,13.42,21.985,13.24,21.988,13.131L21.988,13.131
	z M21.799,13.029l-0.023,0.686l0.613,0.02l0.024-0.783l-0.613-0.02L21.799,13.029L21.799,13.029z"/>
<path fill-rule="evenodd" clip-rule="evenodd" d="M22.176,13.984c0,0.111,0.001,0.307,0.001,0.418c-0.079,0-0.146,0-0.226,0
	c0-0.111-0.002-0.305-0.003-0.416C22.03,13.986,22.096,13.986,22.176,13.984L22.176,13.984z M22.271,13.791l-0.516,0.004
	l0.004,0.803l0.614-0.004l-0.005-0.805L22.271,13.791L22.271,13.791z"/>
<path fill-rule="evenodd" clip-rule="evenodd" d="M21.925,14.836c0.081,0.008,0.146,0.014,0.228,0.023
	c-0.013,0.109-0.033,0.304-0.045,0.414c-0.08-0.008-0.146-0.014-0.225-0.023C21.894,15.141,21.915,14.945,21.925,14.836
	L21.925,14.836z M21.744,14.719l-0.074,0.703l0.61,0.064l0.083-0.798l-0.609-0.064L21.744,14.719L21.744,14.719z"/>
<path fill-rule="evenodd" clip-rule="evenodd" d="M21.799,15.701c0.077,0.02,0.143,0.035,0.22,0.053
	c-0.025,0.109-0.071,0.299-0.097,0.406c-0.077-0.02-0.143-0.033-0.221-0.053C21.727,16,21.773,15.811,21.799,15.701L21.799,15.701z
	 M21.633,15.563l-0.165,0.689l0.598,0.141l0.185-0.781l-0.597-0.143L21.633,15.563L21.633,15.563z"/>
<path fill-rule="evenodd" clip-rule="evenodd" d="M21.544,16.539c0.072,0.037,0.129,0.068,0.201,0.105
	c-0.052,0.1-0.143,0.27-0.194,0.369c-0.071-0.037-0.129-0.068-0.201-0.105C21.402,16.809,21.492,16.637,21.544,16.539L21.544,16.539
	z M21.419,16.363l-0.331,0.625l0.544,0.285l0.374-0.709l-0.541-0.287L21.419,16.363L21.419,16.363z"/>
<path fill-rule="evenodd" clip-rule="evenodd" d="M20.886,17.512c0-0.133,0.107-0.24,0.239-0.24c0.132,0,0.241,0.107,0.241,0.24
	s-0.108,0.24-0.241,0.24C20.993,17.752,20.886,17.645,20.886,17.512L20.886,17.512z M20.691,17.512c0,0.238,0.195,0.434,0.434,0.434
	c0.239,0,0.432-0.195,0.432-0.434s-0.192-0.434-0.432-0.434C20.886,17.078,20.691,17.273,20.691,17.512L20.691,17.512z"/>
<path fill-rule="evenodd" clip-rule="evenodd" d="M28.851,11.859c-0.132,0-0.24-0.107-0.24-0.24s0.107-0.24,0.24-0.24
	c0.131,0,0.242,0.107,0.242,0.24S28.982,11.859,28.851,11.859L28.851,11.859z M28.851,11.188c-0.238,0-0.432,0.193-0.432,0.432
	s0.194,0.434,0.432,0.434c0.24,0,0.435-0.195,0.435-0.434S29.091,11.188,28.851,11.188L28.851,11.188z"/>
<path fill-rule="evenodd" clip-rule="evenodd" d="M29.133,12.648c-0.078,0.01-0.145,0.02-0.225,0.029
	c-0.015-0.11-0.042-0.303-0.055-0.412c0.081-0.012,0.145-0.02,0.225-0.031C29.093,12.346,29.118,12.539,29.133,12.648L29.133,12.648
	z M29.245,12.018L28.634,12.1l0.108,0.797l0.607-0.082l-0.093-0.701L29.245,12.018L29.245,12.018z"/>
<path fill-rule="evenodd" clip-rule="evenodd" d="M29.192,13.527c-0.083,0.004-0.149,0.004-0.229,0.008
	c-0.003-0.109-0.009-0.287-0.011-0.396c0.08-0.002,0.146-0.006,0.226-0.008C29.18,13.24,29.188,13.42,29.192,13.527L29.192,13.527z
	 M29.365,12.932l-0.612,0.02l0.025,0.783l0.612-0.02l-0.021-0.686L29.365,12.932L29.365,12.932z"/>
<path fill-rule="evenodd" clip-rule="evenodd" d="M29.219,13.986c-0.002,0.111-0.004,0.305-0.004,0.416c-0.08,0-0.146,0-0.226,0
	c0-0.111,0.002-0.307,0.002-0.418C29.07,13.986,29.137,13.986,29.219,13.986L29.219,13.986z M28.798,13.789l-0.005,0.805
	l0.614,0.004l0.006-0.803l-0.518-0.004L28.798,13.789L28.798,13.789z"/>
<path fill-rule="evenodd" clip-rule="evenodd" d="M29.286,15.25c-0.083,0.01-0.147,0.016-0.227,0.023
	c-0.011-0.11-0.032-0.305-0.046-0.414c0.082-0.01,0.146-0.016,0.229-0.023C29.25,14.945,29.271,15.141,29.286,15.25L29.286,15.25z
	 M29.413,14.623l-0.609,0.064l0.082,0.798l0.611-0.064l-0.072-0.703L29.413,14.623L29.413,14.623z"/>
<path fill-rule="evenodd" clip-rule="evenodd" d="M29.464,16.107c-0.078,0.02-0.141,0.033-0.219,0.053
	c-0.026-0.107-0.072-0.297-0.099-0.406c0.08-0.018,0.144-0.033,0.222-0.053C29.394,15.811,29.439,16,29.464,16.107L29.464,16.107z
	 M29.511,15.469l-0.597,0.143l0.186,0.781l0.597-0.141l-0.164-0.689L29.511,15.469L29.511,15.469z"/>
<path fill-rule="evenodd" clip-rule="evenodd" d="M29.816,16.908c-0.071,0.037-0.129,0.068-0.2,0.105
	c-0.052-0.1-0.143-0.27-0.194-0.369c0.07-0.037,0.129-0.068,0.2-0.105C29.673,16.637,29.764,16.809,29.816,16.908L29.816,16.908z
	 M29.704,16.277l-0.544,0.287l0.375,0.709l0.544-0.285l-0.331-0.625L29.704,16.277L29.704,16.277z"/>
<path fill-rule="evenodd" clip-rule="evenodd" d="M30.042,17.752c-0.133,0-0.239-0.107-0.239-0.24s0.106-0.24,0.239-0.24
	c0.134,0,0.24,0.107,0.24,0.24S30.176,17.752,30.042,17.752L30.042,17.752z M30.042,17.078c-0.239,0-0.434,0.195-0.434,0.434
	s0.194,0.434,0.434,0.434c0.238,0,0.432-0.195,0.432-0.434S30.28,17.078,30.042,17.078L30.042,17.078z"/>
<path fill-rule="evenodd" clip-rule="evenodd" d="M13.975,18.281l0.584,0.268l0.426,0.173l0.752,0.311
	c-0.061-0.205-0.041-0.359-0.041-0.359s0.231,0.141,0.45-0.106c0.217-0.25,0.016-0.652-0.342-0.996
	c-0.357-0.34-0.776-0.387-1.289-0.201c-0.34,0.125-0.596,0.434-0.772,0.781C13.815,18.193,13.891,18.236,13.975,18.281
	L13.975,18.281z"/>
<path fill-rule="evenodd" clip-rule="evenodd" d="M20.09,24.22c-0.186-0.016-0.388-0.047-0.451,0.018
	c0-0.002-0.047-0.438,0.047-0.607c0.092-0.172,0.077-0.297,0.218-0.313c0,0-0.39-0.199-0.53,0c-0.138,0.203-0.216,0.438-0.216,0.578
	c0,0-0.126,0.168-0.188,0.168c0,0,0.031,0.342,0.047,0.654c0.015,0.309-0.047,0.697-0.171,1.131c-0.125,0.436-0.482,1.025-0.59,1.15
	c-0.08,0.092-0.211,0.211-0.287,0.129c-0.023-0.043-0.043-0.096-0.054-0.16c-0.015-0.084-0.012-0.133-0.002-0.162
	c0.015-0.236,0.1-0.504,0.157-0.904c0.141-0.289,0.293-0.613,0.394-0.896c0.198-0.553,0.575-1.17,0.377-2.537
	c-0.2-1.367-1.487-2.299-1.844-2.574c-0.2-0.158-0.542-0.326-1.088-0.559c-0.428-0.182-0.979-0.402-1.685-0.69
	c-0.227-0.092-0.424-0.186-0.6-0.275c-1.063-0.557-1.235-1.082-1.3-1.381c-0.075-0.34,0.224-1.141,1.334-1.191
	c1.11-0.053,1.844,0.672,2.098,0.977c0.255,0.307,0.468,0.764,0.744,1.111c0.275,0.346,0.896,0.477,0.896,0.477
	c0.255,0.438,0.753,0.835,0.886,0.929c0.073,0.049,0.163,0.154,0.241,0.246l0.058,0.078c-0.006-0.012-0.012-0.021-0.02-0.031
	c0.048,0.053,0.086,0.1,0.107,0.115c0.061,0.041,0.124-0.135,0.124-0.297s-0.042-0.316-0.112-0.428
	c-0.072-0.111-0.225-0.581-0.275-0.712c-0.043-0.113-0.093-0.318-0.107-0.379c-0.002-0.012-0.004-0.02-0.004-0.02
	s0.139-0.523-0.408-1.242c-0.386-0.51-1.021-0.695-1.272-0.824c-0.254-0.133-0.957-0.59-1.384-0.764
	c-0.429-0.174-1.192-0.428-1.875-0.377c-0.682,0.051-1.731,0.346-2.179,1.568c-0.413,1.121,0.104,1.986,0.333,2.515
	c0.474-0.235,0.916-0.132,1.218-0.063c0.423,0.1,0.93,0.32,1.232,0.543c0.42,0.307,0.516,0.793,0.516,1.174
	c0,0.238-0.039,0.434-0.056,0.51c-0.058,0.258-0.25,0.418-0.398,0.508c0.044,0.059,0.091,0.123,0.138,0.215
	c0.043,0.088,0.066,0.166,0.08,0.236c0.313-0.115,0.786-0.145,1.355-0.166l0.316-0.014c0.084-0.002,0.156,0.063,0.159,0.145
	c0.004,0.082-0.058,0.154-0.142,0.156l-0.323,0.014c-0.475,0.018-1.192,0.043-1.409,0.217l-0.296,0.236l0.053-0.377
	c0.001,0,0.021-0.146-0.063-0.311c-0.093-0.188-0.197-0.281-0.198-0.281l-0.183-0.164l0.227-0.088
	c0.003-0.002,0.331-0.135,0.39-0.391c0.022-0.102,0.204-0.979-0.344-1.379c-0.269-0.195-0.742-0.4-1.124-0.488
	c-0.415-0.1-0.982-0.23-1.561,0.5c-0.998,1.268-1.511,2.344-1.568,3.287c-0.004,0.078-0.007,0.154-0.007,0.23
	c0,0.865,0.311,1.398,0.588,1.873l0.196,0.352c0.265,0.516,1.126,2.563,1.613,5.133l0.014,0.072
	c0.037,0.195,0.074,0.396,0.107,0.506c0.471-0.467,2.956-3.217,3.23-4.383l0.012-0.047l0.038-0.033
	c0.046-0.037,0.97-0.834,0.97-2.201c0-0.248-0.031-0.514-0.103-0.799c-0.003-0.012-0.005-0.023-0.005-0.037
	c0-0.066,0.046-0.127,0.114-0.146c0.08-0.02,0.162,0.031,0.183,0.109c0.076,0.305,0.109,0.592,0.109,0.859
	c0,1.398-0.881,2.268-1.042,2.414c-0.229,0.848-1.368,2.299-2.265,3.34c0.059,0.283,0.039,0.441,0.039,0.602
	c0,0.178,0.095,0.482,0.164,0.691c0.015,0.043,0.028,0.082,0.039,0.115c0.062,0.186-0.063,1.303-0.125,1.613
	c-0.063,0.313-0.633,0.783-0.901,0.979c-0.171,0.125-0.124,0.25-0.093,0.311c0,0,0.217-0.201,0.481-0.186
	c0.264,0.018,0.527-0.078,0.901,0.143c0.372,0.217,0.579,0.322,0.652,0.588c0.047,0.17,0.077,0.295,0.077,0.295
	s0.264-0.311,0.278-0.512c0,0,0.561-0.357,0.871-0.389s0.684,0.076,0.714,0.25c0,0,0.039-0.336-0.17-0.547
	c-0.093-0.092-0.249-0.217-0.249-0.217s0.17-0.139,0.279-0.029c0,0-0.03-0.328-0.186-0.344c-0.154-0.016-0.838-0.016-1.087-0.016
	c-0.247,0-0.729-0.092-0.838-0.387c-0.108-0.293-0.03-1.414,0.108-1.537c0.051-0.047,0.103-0.064,0.147-0.066
	c0.079-0.006,0.139,0.035,0.148,0.066c0,0,0.092-0.328,0.217-0.449c0.091-0.094,0.648-0.744,0.964-1.535
	c0.585,0.012,1.091-0.08,1.473-0.33c0.528-0.34,1.025-0.652,1.274-0.574c0,0,0.078-0.418-0.172-0.527c0,0,0.451-0.668,0.59-0.994
	c0.14-0.324,0.358-0.324,0.341-0.156c-0.015,0.172-0.154,0.854,0.716,0.777c0,0-0.156-0.141-0.172-0.324
	c-0.015-0.189-0.202-1.68-0.077-1.99c0.123-0.311,0.31-0.791,0.434-0.822c0.125-0.031,0.203-0.014,0.265,0.047
	c0,0-0.11-0.309-0.295-0.324V24.22z M9.36,27.155c-0.659,0.688-0.948,0.965-1.086,1.176c0,0-0.221,0.164-0.111,0.262
	c0.107,0.096,0.871,0.24,1.602,0.18c-0.37,0.455-0.848,1.232-0.951,1.801c-0.119,0.652,0.238,1.287,0.555,1.387
	c0.316,0.102,0.625,0.023,0.862-0.26c0.315-0.375,0.446-1.344,0.446-1.344s0.505,0.01,0.937,0c-0.413-2.154-1.133-4.064-1.496-4.838
	C10.053,26.081,9.858,26.636,9.36,27.155L9.36,27.155z"/>
<path fill-rule="evenodd" clip-rule="evenodd" d="M24.177,12.477c-0.038,0.029-0.076,0.059-0.11,0.09
	c-0.037,0.031-0.089,0.047-0.121,0.08c-0.032,0.033-0.049,0.082-0.077,0.119c-0.028,0.037-0.032,0.09-0.057,0.127
	c-0.024,0.045-0.056,0.082-0.076,0.127c-0.022,0.047-0.021,0.098-0.036,0.145c-0.003,0.016-0.009,0.029-0.013,0.043h0.678v-0.84
	c-0.015,0.021-0.032,0.041-0.051,0.055C24.273,12.447,24.216,12.449,24.177,12.477L24.177,12.477z M23.786,14.078
	c0.025,0.037,0.083,0.051,0.111,0.086c0.028,0.033,0.061,0.063,0.093,0.096c0.031,0.031,0.056,0.07,0.091,0.1
	c0.034,0.029,0.074,0.053,0.113,0.082c0.036,0.027,0.052,0.09,0.094,0.113c0.02,0.014,0.047,0.016,0.076,0.018v-0.52h-0.581
	C23.785,14.061,23.782,14.072,23.786,14.078L23.786,14.078z M25.146,14.863c0.002,0,0.005,0,0.006,0
	c0.057,0.287,0.068,0.432,0.015,0.596h0.55c0-0.168,0.063-0.373,0.261-0.613c0.003-0.002,0.009-0.004,0.013-0.004v-0.789h-0.845
	V14.863L25.146,14.863z M25.741,12.074c-0.051-0.004-0.1-0.021-0.152-0.021c-0.038,0-0.074,0.016-0.112,0.018
	c-0.04,0.002-0.085-0.033-0.127-0.029s-0.082,0.039-0.122,0.045c-0.027,0.004-0.054,0.002-0.082,0v1.121h0.845v-1.143
	c-0.029-0.02-0.057-0.041-0.089-0.043C25.85,12.014,25.794,12.076,25.741,12.074L25.741,12.074z M26.772,14.572
	c0.034-0.02,0.072-0.035,0.104-0.057c0.042-0.026,0.088-0.045,0.125-0.072c0.038-0.031,0.098-0.035,0.131-0.068
	c0.037-0.031,0.042-0.094,0.074-0.129c0.032-0.033,0.065-0.066,0.091-0.104c0.029-0.037,0.091-0.051,0.114-0.09h-0.641V14.572
	L26.772,14.572z M27.499,13.078c-0.015-0.039-0.045-0.074-0.064-0.113s-0.074-0.055-0.099-0.092
	c-0.022-0.037-0.007-0.102-0.036-0.137c-0.026-0.035-0.07-0.059-0.101-0.092c-0.033-0.031-0.084-0.041-0.12-0.07
	c-0.034-0.029-0.074-0.053-0.11-0.08c-0.038-0.027-0.07-0.059-0.11-0.084c-0.03-0.018-0.057-0.037-0.085-0.057v0.854h0.73
	C27.495,13.166,27.514,13.117,27.499,13.078L27.499,13.078z"/>
<polygon fill-rule="evenodd" clip-rule="evenodd" points="11.911,36.554 12.526,36.554 12.526,36.716 12.104,36.716 12.104,36.919 
	12.47,36.919 12.47,37.067 12.104,37.067 12.104,37.433 11.911,37.433 11.911,36.554 "/>
<path fill-rule="evenodd" clip-rule="evenodd" d="M13.031,37.29c0.172,0,0.238-0.148,0.238-0.295c0-0.15-0.065-0.301-0.238-0.301
	c-0.174,0-0.238,0.15-0.238,0.301C12.793,37.142,12.857,37.29,13.031,37.29L13.031,37.29z M13.031,36.534
	c0.271,0,0.43,0.203,0.43,0.461c0,0.254-0.16,0.457-0.43,0.457c-0.272,0-0.432-0.203-0.432-0.457
	C12.6,36.737,12.759,36.534,13.031,36.534L13.031,36.534z"/>
<path fill-rule="evenodd" clip-rule="evenodd" d="M13.785,36.952h0.211c0.085,0,0.131-0.037,0.131-0.125
	c0-0.084-0.046-0.121-0.131-0.121h-0.211V36.952L13.785,36.952z M13.592,36.554h0.472c0.157,0,0.258,0.109,0.258,0.244
	c0,0.104-0.042,0.178-0.139,0.217v0.002c0.095,0.027,0.12,0.117,0.126,0.205c0.005,0.057,0.003,0.158,0.037,0.211h-0.192
	c-0.022-0.059-0.021-0.141-0.03-0.211c-0.015-0.092-0.05-0.135-0.147-0.135h-0.192v0.346h-0.193V36.554L13.592,36.554z"/>
<polygon fill-rule="evenodd" clip-rule="evenodd" points="15.012,36.716 14.75,36.716 14.75,36.554 15.467,36.554 15.467,36.716 
	15.205,36.716 15.205,37.433 15.012,37.433 15.012,36.716 "/>
<polygon fill-rule="evenodd" clip-rule="evenodd" points="15.567,36.554 15.76,36.554 15.76,36.89 16.115,36.89 16.115,36.554 
	16.308,36.554 16.308,37.433 16.115,37.433 16.115,37.052 15.76,37.052 15.76,37.433 15.567,37.433 15.567,36.554 "/>
<polygon fill-rule="evenodd" clip-rule="evenodd" points="16.477,36.554 17.131,36.554 17.131,36.716 16.669,36.716 16.669,36.903 
	17.093,36.903 17.093,37.054 16.669,37.054 16.669,37.271 17.141,37.271 17.141,37.433 16.477,37.433 16.477,36.554 "/>
<path fill-rule="evenodd" clip-rule="evenodd" d="M18.089,37.106l0.099,0.09c0.032-0.043,0.054-0.109,0.054-0.201
	c0-0.15-0.065-0.301-0.239-0.301c-0.172,0-0.236,0.15-0.236,0.301c0,0.146,0.064,0.295,0.236,0.295c0.029,0,0.065,0,0.079-0.014
	l-0.083-0.072L18.089,37.106L18.089,37.106z M18.34,37.511l-0.124-0.109c-0.058,0.033-0.13,0.051-0.213,0.051
	c-0.271,0-0.429-0.203-0.429-0.457c0-0.258,0.158-0.461,0.429-0.461c0.272,0,0.433,0.203,0.433,0.461
	c0,0.127-0.042,0.242-0.116,0.322l0.109,0.102L18.34,37.511L18.34,37.511z"/>
<path fill-rule="evenodd" clip-rule="evenodd" d="M19.309,37.099c0,0.236-0.14,0.354-0.375,0.354c-0.236,0-0.373-0.115-0.373-0.354
	v-0.545h0.195v0.545c0,0.096,0.023,0.191,0.178,0.191c0.137,0,0.182-0.061,0.182-0.191v-0.545h0.193V37.099L19.309,37.099z"/>
<polygon fill-rule="evenodd" clip-rule="evenodd" points="19.475,36.554 20.129,36.554 20.129,36.716 19.667,36.716 19.667,36.903 
	20.092,36.903 20.092,37.054 19.667,37.054 19.667,37.271 20.141,37.271 20.141,37.433 19.475,37.433 19.475,36.554 "/>
<polygon fill-rule="evenodd" clip-rule="evenodd" points="20.27,36.554 20.924,36.554 20.924,36.716 20.461,36.716 20.461,36.903 
	20.886,36.903 20.886,37.054 20.461,37.054 20.461,37.271 20.935,37.271 20.935,37.433 20.27,37.433 20.27,36.554 "/>
<polygon fill-rule="evenodd" clip-rule="evenodd" points="21.064,36.554 21.255,36.554 21.621,37.142 21.624,37.142 21.624,36.554 
	21.803,36.554 21.803,37.433 21.61,37.433 21.246,36.847 21.244,36.847 21.244,37.433 21.064,37.433 21.064,36.554 "/>
<path fill-rule="evenodd" clip-rule="evenodd" d="M21.963,37.241h0.192v0.191c0,0.111-0.087,0.186-0.191,0.201v-0.09
	c0.051-0.008,0.089-0.059,0.087-0.111h-0.088V37.241L21.963,37.241z"/>
<polygon fill-rule="evenodd" clip-rule="evenodd" points="22.848,36.716 22.585,36.716 22.585,36.554 23.304,36.554 23.304,36.716 
	23.041,36.716 23.041,37.433 22.848,37.433 22.848,36.716 "/>
<polygon fill-rule="evenodd" clip-rule="evenodd" points="23.403,36.554 23.596,36.554 23.596,36.89 23.951,36.89 23.951,36.554 
	24.144,36.554 24.144,37.433 23.951,37.433 23.951,37.052 23.596,37.052 23.596,37.433 23.403,37.433 23.403,36.554 "/>
<polygon fill-rule="evenodd" clip-rule="evenodd" points="24.312,36.554 24.968,36.554 24.968,36.716 24.504,36.716 24.504,36.903 
	24.929,36.903 24.929,37.054 24.504,37.054 24.504,37.271 24.976,37.271 24.976,37.433 24.312,37.433 24.312,36.554 "/>
<polygon fill-rule="evenodd" clip-rule="evenodd" points="25.446,36.554 25.641,36.554 25.641,37.271 26.066,37.271 26.066,37.433 
	25.446,37.433 25.446,36.554 "/>
<path fill-rule="evenodd" clip-rule="evenodd" d="M26.396,37.091h0.226l-0.11-0.318h-0.002L26.396,37.091L26.396,37.091z
	 M26.415,36.554h0.196l0.327,0.879h-0.2l-0.065-0.195h-0.329l-0.068,0.195h-0.194L26.415,36.554L26.415,36.554z"/>
<polygon fill-rule="evenodd" clip-rule="evenodd" points="27.826,37.433 27.636,37.433 27.487,36.833 27.483,36.833 27.339,37.433 
	27.144,37.433 26.913,36.554 27.103,36.554 27.242,37.151 27.246,37.151 27.398,36.554 27.577,36.554 27.727,37.157 27.729,37.157 
	27.872,36.554 28.062,36.554 27.826,37.433 "/>
<path fill-rule="evenodd" clip-rule="evenodd" d="M28.048,37.241h0.194v0.191c0,0.111-0.088,0.186-0.192,0.201v-0.09
	c0.051-0.008,0.089-0.059,0.088-0.111h-0.09V37.241L28.048,37.241z"/>
<path fill-rule="evenodd" clip-rule="evenodd" d="M28.961,37.091h0.227l-0.109-0.318h-0.003L28.961,37.091L28.961,37.091z
	 M28.98,36.554h0.198l0.328,0.879h-0.2l-0.066-0.195h-0.327l-0.071,0.195h-0.194L28.98,36.554L28.98,36.554z"/>
<polygon fill-rule="evenodd" clip-rule="evenodd" points="29.582,36.554 29.774,36.554 30.139,37.142 30.139,36.554 30.32,36.554 
	30.32,37.433 30.127,37.433 29.765,36.847 29.761,36.847 29.761,37.433 29.582,37.433 29.582,36.554 "/>
<path fill-rule="evenodd" clip-rule="evenodd" d="M30.681,37.271h0.173c0.112,0,0.217-0.068,0.217-0.264
	c0-0.176-0.061-0.291-0.251-0.291h-0.139V37.271L30.681,37.271z M30.49,36.554h0.376c0.229,0,0.399,0.143,0.399,0.436
	c0,0.252-0.131,0.443-0.399,0.443H30.49V36.554L30.49,36.554z"/>
<polygon fill-rule="evenodd" clip-rule="evenodd" points="31.933,36.716 31.67,36.716 31.67,36.554 32.388,36.554 32.388,36.716 
	32.125,36.716 32.125,37.433 31.933,37.433 31.933,36.716 "/>
<polygon fill-rule="evenodd" clip-rule="evenodd" points="32.489,36.554 32.681,36.554 32.681,36.89 33.036,36.89 33.036,36.554 
	33.229,36.554 33.229,37.433 33.036,37.433 33.036,37.052 32.681,37.052 32.681,37.433 32.489,37.433 32.489,36.554 "/>
<polygon fill-rule="evenodd" clip-rule="evenodd" points="33.396,36.554 34.05,36.554 34.05,36.716 33.59,36.716 33.59,36.903 
	34.015,36.903 34.015,37.054 33.59,37.054 33.59,37.271 34.062,37.271 34.062,37.433 33.396,37.433 33.396,36.554 "/>
<path fill-rule="evenodd" clip-rule="evenodd" d="M34.726,36.968h0.148c0.089,0,0.171-0.021,0.171-0.133s-0.082-0.129-0.171-0.129
	h-0.148V36.968L34.726,36.968z M34.533,36.554h0.394c0.219,0,0.302,0.139,0.302,0.281s-0.083,0.283-0.302,0.283l-0.202-0.002v0.316
	h-0.192V36.554L34.533,36.554z"/>
<polygon fill-rule="evenodd" clip-rule="evenodd" points="35.352,36.554 36.006,36.554 36.006,36.716 35.542,36.716 35.542,36.903 
	35.968,36.903 35.968,37.054 35.542,37.054 35.542,37.271 36.015,37.271 36.015,37.433 35.352,37.433 35.352,36.554 "/>
<path fill-rule="evenodd" clip-rule="evenodd" d="M36.537,37.29c0.173,0,0.238-0.148,0.238-0.295c0-0.15-0.065-0.301-0.238-0.301
	s-0.238,0.15-0.238,0.301C36.299,37.142,36.364,37.29,36.537,37.29L36.537,37.29z M36.537,36.534c0.272,0,0.432,0.203,0.432,0.461
	c0,0.254-0.159,0.457-0.432,0.457c-0.27,0-0.43-0.203-0.43-0.457C36.106,36.737,36.267,36.534,36.537,36.534L36.537,36.534z"/>
<path fill-rule="evenodd" clip-rule="evenodd" d="M37.292,36.968h0.15c0.087,0,0.169-0.021,0.169-0.133s-0.082-0.129-0.169-0.129
	h-0.15V36.968L37.292,36.968z M37.1,36.554h0.394c0.219,0,0.303,0.139,0.303,0.281s-0.084,0.283-0.303,0.283l-0.202-0.002v0.316
	H37.1V36.554L37.1,36.554z"/>
<polygon fill-rule="evenodd" clip-rule="evenodd" points="37.916,36.554 38.11,36.554 38.11,37.271 38.536,37.271 38.536,37.433 
	37.916,37.433 37.916,36.554 "/>
<polygon fill-rule="evenodd" clip-rule="evenodd" points="38.645,36.554 39.301,36.554 39.301,36.716 38.836,36.716 38.836,36.903 
	39.261,36.903 39.261,37.054 38.836,37.054 38.836,37.271 39.308,37.271 39.308,37.433 38.645,37.433 38.645,36.554 "/>
<path fill-rule="evenodd" clip-rule="evenodd" d="M39.628,38.007H11.483v-2.027h28.145V38.007L39.628,38.007z M39.776,35.681H11.183
	v2.627h28.744v-2.627H39.776L39.776,35.681z"/>
<path fill-rule="evenodd" clip-rule="evenodd" d="M41.52,28.774l-0.314-0.027l0.2,0.244c0.386,0.477,0.829,1.227,0.922,1.74
	c0.111,0.605-0.234,1.162-0.462,1.234c-0.279,0.088-0.529,0.012-0.721-0.217c-0.235-0.283-0.379-1.018-0.415-1.277l-0.015-0.117
	l-0.122,0.002c-0.008,0-0.503,0.01-0.922,0c0.382-1.938,1.007-3.664,1.381-4.516c0.087,0.523,0.294,1.049,0.766,1.541l0.408,0.422
	c0.376,0.389,0.564,0.584,0.662,0.736l0.013,0.018l0.019,0.014c0.028,0.021,0.045,0.045,0.063,0.068
	C42.832,28.704,42.205,28.829,41.52,28.774L41.52,28.774z M36.999,18.654l-0.417,0.169l-0.932,0.383
	c0.044-0.137,0.067-0.256,0.067-0.332c0-0.051-0.004-0.08-0.006-0.082l-0.026-0.196l-0.173,0.095
	c-0.023,0.016-0.15,0.072-0.282-0.079c-0.159-0.184,0.052-0.539,0.333-0.809c0.311-0.297,0.664-0.35,1.151-0.174
	c0.291,0.107,0.553,0.406,0.738,0.816C37.281,18.525,36.999,18.654,36.999,18.654L36.999,18.654z M32.585,24.931l0.097,0.252
	c0,0,0.348,0.795,0.39,0.893c0.008,0.037,0.086,0.467,0.086,0.467l0.066,0.406l0.008,0.033l-0.008,0.1
	c0,0.004-0.005,0.029-0.011,0.053c-0.023-0.016-0.054-0.041-0.098-0.088c-0.087-0.104-0.439-0.67-0.561-1.1
	c-0.113-0.391-0.17-0.727-0.17-1c0-0.029,0.002-0.061,0.004-0.088c0,0,0.015-0.211,0.026-0.395
	C32.471,24.632,32.528,24.79,32.585,24.931L32.585,24.931z M43.275,28.663v-0.012c-0.004-0.129-0.116-0.229-0.171-0.271
	c-0.114-0.17-0.306-0.371-0.685-0.762l-0.407-0.424c-0.527-0.549-0.705-1.127-0.746-1.797l0.145-0.256
	c0.306-0.525,0.685-1.174,0.62-2.268c-0.062-1.002-0.593-2.127-1.629-3.441c-0.173-0.221-0.348-0.373-0.521-0.479
	c0.043-0.098,0.093-0.213,0.093-0.213c0.177-0.384,0.415-0.901,0.415-1.532c0-0.277-0.045-0.578-0.164-0.898
	c-0.485-1.326-1.647-1.607-2.294-1.654c-0.719-0.055-1.521,0.219-1.935,0.387c-0.296,0.119-0.706,0.363-1.037,0.561l-0.357,0.207
	l-0.187,0.084c-0.32,0.139-0.803,0.346-1.132,0.781c-0.384,0.502-0.451,0.924-0.451,1.156c0,0.08,0.006,0.129,0.012,0.16
	c-0.004,0.017-0.099,0.355-0.099,0.355l-0.064,0.174c-0.053,0.155-0.156,0.446-0.198,0.513c-0.088,0.135-0.135,0.313-0.135,0.5
	c0,0.123,0.034,0.348,0.16,0.418c0.055,0.027,0.12,0.025,0.171-0.01c0.002-0.002,0.083-0.084,0.114-0.115l0.003,0.002l0.059-0.074
	c-0.002,0.002,0.213-0.223,0.213-0.223c0.15-0.102,0.62-0.488,0.888-0.919c0.133-0.031,0.654-0.174,0.922-0.512l0.383-0.574
	l0.357-0.533c0.192-0.23,0.904-0.98,1.99-0.93c0.58,0.025,0.882,0.266,1.033,0.463c0.13,0.17,0.182,0.355,0.182,0.486
	c0,0.029-0.002,0.057-0.006,0.08c-0.047,0.209-0.154,0.691-1.12,1.229c-0.154-0.334-0.432-0.775-0.895-0.945
	c-0.578-0.209-1.046-0.135-1.427,0.232c-0.466,0.443-0.599,0.895-0.35,1.177c0.133,0.154,0.282,0.195,0.407,0.191
	c-0.011,0.096-0.04,0.227-0.124,0.369c-0.607,0.258-0.921,0.422-1.119,0.572l-0.055,0.045c-0.449,0.344-1.642,1.264-1.837,2.619
	c-0.042,0.277-0.059,0.525-0.059,0.75c0,0.275,0.031,0.502,0.074,0.713c-0.027-0.027-0.066-0.068-0.08-0.086
	c-0.019-0.176-0.097-0.396-0.226-0.584c-0.204-0.291-0.651-0.066-0.7-0.043l-0.146,0.141l0.203,0.113
	c0,0.008,0.032,0.078,0.032,0.078l0.072,0.162c0.031,0.057,0.042,0.18,0.042,0.305c0,0.025-0.004,0.045-0.004,0.07
	c-0.076-0.002-0.157,0.002-0.25,0.01l-0.084,0.008c-0.266,0.021-0.397,0.375-0.41,0.414l0.091,0.035
	c0.026,0.016,0.143,0.064,0.243,0.088c0.092,0.061,0.271,0.512,0.348,0.705l0.017,0.043c0.061,0.156,0.039,0.748-0.068,1.766
	l-0.017,0.164c-0.012,0.129-0.128,0.236-0.128,0.236l-0.225,0.203l0.301,0.029c0.319,0.029,0.555-0.035,0.706-0.189
	c0.141-0.146,0.173-0.342,0.173-0.498c0-0.057-0.006-0.098-0.01-0.141c0.023,0.029,0.05,0.064,0.077,0.129
	c0.112,0.258,0.401,0.707,0.53,0.908c-0.103,0.109-0.134,0.273-0.134,0.416c0,0.064,0.005,0.119,0.013,0.166l0.028,0.148
	l0.145-0.045c0.2-0.063,0.778,0.313,1.161,0.561c0.365,0.234,0.844,0.35,1.462,0.35c0.329,0.771,0.858,1.4,0.955,1.494
	c0.07,0.074,0.15,0.279,0.183,0.393l0.085,0.301c0,0,0.122-0.213,0.15-0.262c0.034-0.008,0.099,0.025,0.099,0.025
	c0.089,0.125,0.003,1.125-0.084,1.395c0.08,0.021,0.19,0.063,0.283,0.084c0.093-0.35,0.178-1.504-0.021-1.678l-0.232-0.102
	c-0.025-0.002-0.049,0.01-0.076,0.014c-0.042-0.117-0.11-0.27-0.197-0.357c-0.095-0.092-0.63-0.723-0.937-1.49l-0.034-0.086
	l-0.093,0.002c-0.604,0.012-1.062-0.092-1.398-0.309c-0.521-0.338-0.93-0.582-1.223-0.602c0-0.002-0.002-0.002-0.002-0.004
	c0-0.102,0.021-0.227,0.103-0.262l0.148-0.063l-0.089-0.135c-0.006-0.004-0.447-0.662-0.579-0.973
	c-0.131-0.301-0.317-0.371-0.439-0.342c-0.084,0.02-0.161,0.098-0.161,0.223c0,0.01,0,0.021,0,0.029l0.006,0.043
	c0.004,0.043,0.01,0.104,0.01,0.168c0,0.111-0.018,0.23-0.095,0.311c-0.053,0.055-0.139,0.082-0.24,0.098
	c0.021-0.051,0.039-0.107,0.044-0.168l0.017-0.158c0.053-0.51,0.103-1.043,0.103-1.422c0-0.213-0.015-0.375-0.051-0.469
	l-0.017-0.047c-0.23-0.572-0.352-0.816-0.51-0.855c-0.002-0.004-0.006-0.002-0.008-0.002c0.006-0.004,0.012-0.014,0.017-0.014
	l0.09-0.01c0.085-0.01,0.23-0.021,0.266-0.006l0.19,0.141l0.027-0.23c0.004-0.035,0.014-0.133,0.014-0.252
	c0-0.145-0.016-0.322-0.075-0.432l-0.057-0.131c-0.007-0.02-0.023-0.039-0.03-0.059c0.072-0.016,0.143-0.018,0.169,0.018
	c0.125,0.184,0.192,0.391,0.192,0.498v0.045l0.027,0.035c0.063,0.086,0.112,0.133,0.156,0.166c-0.009,0.127-0.042,0.57-0.042,0.57
	c-0.002,0.033-0.002,0.07-0.002,0.104c0,0.297,0.06,0.66,0.178,1.074c0.129,0.449,0.498,1.064,0.618,1.203
	c0.118,0.131,0.223,0.199,0.324,0.199l0.164-0.066l0.089-0.24l-0.003-0.223v-0.01l0.008,0.047l-0.075-0.443l-0.089-0.486
	l-0.007-0.021l-0.389-0.887l-0.101-0.262c-0.192-0.482-0.434-1.084-0.269-2.211c0.181-1.248,1.309-2.117,1.735-2.445l0.057-0.043
	c0.175-0.137,0.481-0.291,1.058-0.539l1.267-0.521l0.418-0.17l0.609-0.28c1.05-0.549,1.284-1.074,1.37-1.471
	c0.038-0.176,0.003-0.488-0.224-0.785c-0.187-0.242-0.55-0.537-1.235-0.568c-1.175-0.055-1.935,0.699-2.207,1.025l-0.38,0.564
	l-0.365,0.547c-0.242,0.305-0.814,0.43-0.82,0.432l-0.057,0.012l-0.03,0.053c-0.242,0.417-0.729,0.802-0.845,0.882l-0.268,0.271
	c0,0-0.014,0.016-0.022,0.031c-0.004-0.027-0.01-0.051-0.01-0.08c0-0.133,0.035-0.262,0.093-0.355
	c0.053-0.088,0.131-0.299,0.225-0.567l0.061-0.168l0.124-0.43l-0.006-0.049c-0.002-0.006-0.013-0.055-0.013-0.137
	c0-0.184,0.055-0.543,0.398-0.992c0.287-0.377,0.73-0.568,1.025-0.693l0.204-0.094l0.373-0.215c0.303-0.182,0.721-0.43,0.999-0.543
	c0.392-0.158,1.149-0.416,1.813-0.367c0.583,0.043,1.628,0.293,2.063,1.48c0.346,0.945,0.005,1.684-0.244,2.225l-0.089,0.204
	c-0.424-0.161-0.816-0.07-1.088-0.006c-0.42,0.096-0.924,0.32-1.226,0.537c-0.416,0.303-0.509,0.785-0.509,1.16
	c0,0.242,0.039,0.436,0.055,0.51c0.059,0.26,0.259,0.418,0.406,0.506c-0.045,0.063-0.097,0.127-0.147,0.229
	c-0.047,0.096-0.068,0.18-0.082,0.256c-0.343-0.133-0.875-0.16-1.368-0.176l-0.318-0.014c0,0-0.099-0.018-0.118,0.111
	c-0.017,0.139,0.104,0.154,0.104,0.154l0.321,0.014c0.478,0.018,1.199,0.043,1.419,0.221l0.268,0.213l-0.051-0.338
	c0,0-0.021-0.15,0.065-0.322c0.095-0.188,0.201-0.283,0.201-0.283l0.164-0.146l-0.204-0.082c-0.004-0.002-0.338-0.135-0.399-0.402
	c-0.021-0.098-0.206-0.988,0.35-1.393c0.272-0.197,0.748-0.404,1.13-0.494c0.418-0.098,0.993-0.23,1.578,0.51
	c0.999,1.27,1.513,2.348,1.572,3.293c0.004,0.082,0.006,0.158,0.006,0.232c0,0.871-0.312,1.406-0.59,1.883l-0.194,0.35
	c-0.264,0.516-1.127,2.561-1.612,5.129l-0.016,0.072c-0.042,0.225-0.08,0.43-0.118,0.529c-0.396-0.383-2.975-3.229-3.251-4.404
	l-0.01-0.043l-0.034-0.029c-0.047-0.039-0.976-0.838-0.976-2.211c0-0.25,0.03-0.518,0.101-0.807c0,0,0.03-0.115-0.097-0.141
	c-0.125-0.031-0.162,0.076-0.162,0.076c-0.076,0.305-0.108,0.588-0.108,0.854c0,1.404,0.892,2.275,1.041,2.406
	c0.215,0.811,1.269,2.172,2.146,3.201l-0.012,0.039c-0.07,0.289-0.064,0.467-0.059,0.607l0.002,0.102c0,0.174-0.114,0.52-0.156,0.65
	l-0.015,0.043l-0.023,0.072c-0.019,0.049-0.024,0.139-0.024,0.25c0,0.438,0.097,1.182,0.146,1.332
	c0.08,0.266,0.365,0.473,0.369,0.48c0.126,0.035,0.06-0.178,0.16-0.145c-0.05-0.072-0.162-0.213-0.219-0.379
	C38,32.872,37.87,32.063,37.87,31.729c0-0.07,0-0.121,0.009-0.145l0.039-0.113c0.086-0.26,0.171-0.545,0.171-0.736l-0.002-0.109
	c-0.002-0.037-0.004-0.074-0.004-0.115c0-0.074,0.01-0.164,0.027-0.264c0.544,0.623,0.978,1.07,1.024,1.104
	c0.087,0.057,0.161,0.045,0.207,0.025c0.146-0.061,0.187-0.266,0.28-0.752c0.318,0.01,0.681,0.004,0.863,0.002
	c0.045,0.273,0.185,0.969,0.457,1.297c0.264,0.314,0.62,0.422,1.006,0.299c0.344-0.105,0.671-0.654,0.671-1.256
	c0-0.094-0.007-0.186-0.025-0.283c-0.091-0.502-0.457-1.146-0.81-1.631c0.631,0.01,1.278-0.1,1.419-0.225
	C43.249,28.782,43.275,28.724,43.275,28.663L43.275,28.663z"/>
<path fill-rule="evenodd" clip-rule="evenodd" d="M25.438,20.841l-0.269-0.107v0.346l0.269-0.113l-0.087,0.174
	c-0.068,0.031-0.147,0.049-0.203,0.055c-0.184,0.018-0.216-0.035-0.231-0.063c-0.049-0.08,0.042-0.23,0.164-0.201
	c0,0-0.037-0.209-0.242-0.07c0,0-0.004-0.24-0.156-0.271c-0.099,0.115,0.01,0.32,0.01,0.32c-0.251,0-0.151,0.203-0.151,0.203
	c0.08-0.094,0.249-0.039,0.246,0.068c-0.002,0.064-0.188,0.129-0.326,0.076c-0.141-0.053-0.256-0.389-0.222-0.439
	c0.247-0.389,0.804-0.566,0.88-0.594c0.078-0.027,0.126,0,0.141,0.037c0.013,0.033,0.087,0.215,0.145,0.342h-0.093L25.438,20.841
	L25.438,20.841z M25.585,20.837l0.12-0.234h-0.093c0.057-0.127,0.131-0.309,0.145-0.342c0.015-0.037,0.062-0.064,0.141-0.037
	c0.076,0.027,0.633,0.205,0.88,0.594c0.034,0.051-0.084,0.387-0.223,0.439c-0.138,0.053-0.321-0.012-0.325-0.076
	c-0.004-0.107,0.165-0.162,0.245-0.068c0,0,0.101-0.203-0.152-0.203c0,0,0.11-0.148,0.009-0.266
	c-0.15,0.035-0.154,0.217-0.154,0.217c-0.205-0.139-0.243,0.07-0.243,0.07c0.122-0.029,0.213,0.123,0.166,0.201
	c-0.017,0.027-0.048,0.08-0.232,0.063c-0.053-0.006-0.131-0.023-0.198-0.055l-0.085-0.168l0.263,0.107v-0.346L25.585,20.837
	L25.585,20.837z M23.865,20.69c-0.024,0.027-0.048,0.105-0.01,0.148c0.039,0.043,0.063,0.055,0.102,0.092
	c0.038,0.039,0.152,0.707,0.177,0.773c0.025,0.068,0.029,0.166,0.029,0.166s-0.014,0.125,0.034,0.172
	c0.039,0.041,0.115,0.033,0.13,0.059c0.014,0.023,0.009,0.057,0.116,0.035c0.107-0.027,0.538-0.191,1.066-0.191
	c0.531,0.002,0.961,0.164,1.065,0.191c0.107,0.021,0.103-0.012,0.116-0.035c0.016-0.025,0.092-0.018,0.132-0.059
	c0.047-0.047,0.032-0.172,0.032-0.172s0.005-0.098,0.028-0.166c0.025-0.066,0.141-0.734,0.179-0.773
	c0.041-0.037,0.063-0.049,0.101-0.092c0.04-0.043,0.015-0.121-0.01-0.148c-0.502-0.6-1.122-0.797-1.535-0.844l-0.063-0.139
	l0.162,0.074v-0.238l-0.162,0.072l0.074-0.16h-0.24l0.078,0.162l-0.164-0.074v0.238l0.164-0.076l-0.063,0.131
	C24.993,19.858,24.368,20.087,23.865,20.69L23.865,20.69z M27.105,32.015c0.3-0.283,0.305-0.463,0.305-0.463
	c-0.107-0.107-0.5-0.166-0.5-0.166c0.109,0.205-0.147,0.363-0.147,0.363C27.088,31.765,27.105,32.015,27.105,32.015L27.105,32.015z
	 M23.804,31.53c0.023,0.146,0.307,0.43,0.307,0.43c0.032-0.234,0.331-0.211,0.331-0.211c-0.253-0.203-0.122-0.414-0.122-0.414
	C23.915,31.384,23.804,31.53,23.804,31.53L23.804,31.53z M25.603,30.905c0.116-0.301,0.359-0.244,0.359-0.244
	c-0.175-0.371-0.346-0.43-0.346-0.43C25.481,30.3,25.3,30.657,25.3,30.657C25.532,30.614,25.603,30.905,25.603,30.905L25.603,30.905
	z M24.453,33.101c-0.076,0.404,0.026,0.551,0.026,0.551c0.149,0.023,0.505-0.158,0.505-0.158c-0.212-0.104-0.099-0.379-0.099-0.379
	C24.613,33.292,24.453,33.101,24.453,33.101L24.453,33.101z M30.723,23.7c0.072-0.027,0.154-0.104,0.166-0.137
	c0.011-0.033,0.019-0.141-0.01-0.215c-0.186-0.457-0.791-0.463-0.791-0.463c-0.078-0.125-0.237-0.057-0.237-0.057
	c-0.482-0.479-1.066-0.586-1.066-0.586c-0.152-0.199-0.346-0.088-0.346-0.088c-0.419-0.186-0.849-0.375-1.271-0.566
	c-0.017,0.076-0.04,0.182-0.04,0.182c-0.006,0.031-0.014,0.053-0.021,0.08c0.002,0.021,0.004,0.061,0.004,0.061
	c0,0.076-0.016,0.176-0.073,0.264c0.388,0.168,0.78,0.342,1.161,0.514c0,0,0.051,0.217,0.301,0.197c0,0,0.472,0.361,1.147,0.396
	c0,0,0.057,0.168,0.204,0.141C29.851,23.423,30.259,23.868,30.723,23.7L30.723,23.7z M40.32,34.552
	c-0.257-0.229-0.708-0.453-0.966-0.742c-0.097-0.107-0.453-0.234-0.883-0.363c-0.011-0.006-0.023-0.012-0.03-0.016
	c-0.105-0.043-0.309-0.102-0.537-0.162c0.118,0.309,0.624,0.73,0.875,0.912c0.171,0.125,0.125,0.248,0.094,0.309
	c0,0-0.217-0.201-0.482-0.184c-0.264,0.014-0.527-0.08-0.901,0.139c-0.371,0.215-0.579,0.324-0.651,0.59
	c-0.047,0.17-0.078,0.293-0.078,0.293s-0.265-0.309-0.28-0.51c0,0-0.56-0.357-0.869-0.389c-0.311-0.031-0.683,0.076-0.715,0.248
	c0,0-0.039-0.334,0.172-0.545c0.091-0.094,0.247-0.217,0.247-0.217s-0.171-0.141-0.279-0.031c0,0,0.032-0.324,0.185-0.34
	c0.156-0.018,0.841-0.018,1.088-0.018c0.25,0,0.73-0.092,0.839-0.389c0.006-0.018,0.014-0.037,0.017-0.061
	c-0.118-0.031-0.222-0.059-0.293-0.078c-0.15-0.043-0.274-0.086-0.352-0.125c-0.483-0.223-1.353-0.256-1.838-0.289l-0.139-0.041
	l-0.008-1.035l-0.133-0.014c-0.627-0.064-1.483,0.02-2.037,0.414l-0.03-0.008h-0.002c-0.422-0.121-0.889-0.201-1.579-0.377
	c-0.017-0.008-0.19-0.063-0.306-0.098c0.683-0.887,1.208-1.98,1.374-3.309l-0.267,0.002c-0.538,4.139-4.683,5.898-5.899,6.168
	c-1.248-0.279-5.569-2.111-5.955-6.443h-0.261c0.13,1.512,0.718,2.73,1.496,3.693c-0.603,0.088-1.415,0.268-1.713,0.338
	c-0.113,0.027-0.208,0.063-0.297,0.096c-0.014,0.004-0.03,0.008-0.044,0.012c-0.489-0.512-1.463-0.68-2.185-0.572l-0.127,0.018
	l-0.006,1.258c-0.521,0.02-1.018,0.008-1.238,0.025c-0.206,0.018-0.548,0.166-0.867,0.307c0.132,0.074,0.332,0.117,0.502,0.117
	c0,0,1.108,0.018,1.109,0.018c0.241,0.023,0.352,0.289,0.374,0.531c0,0,0.016,0.168,0.031,0.328
	c0.076,0.158,0.113,0.318,0.113,0.418c0,0.047-0.004,0.078-0.004,0.088l-0.124,0.361l-0.282-0.322
	c-0.04-0.049-0.262-0.125-0.498-0.102c-0.172,0.018-0.502,0.191-0.713,0.318c-0.069,0.227-0.253,0.459-0.296,0.51l-0.262,0.305
	l-0.177-0.68c-0.045-0.158-0.161-0.232-0.494-0.426l-0.062-0.037c-0.225-0.133-0.391-0.125-0.581-0.115c0,0-0.226,0.004-0.227,0.004
	c-0.14-0.012-0.283,0.092-0.326,0.129l-0.207,0.188l-0.125-0.248c-0.106-0.209-0.046-0.424,0.158-0.574
	c0.111-0.078,0.222-0.168,0.327-0.264c-0.024,0.008-0.051,0.012-0.075,0.018c-0.321,0.064-1.095,0.547-1.545,0.709
	c-0.452,0.16-1.128,0.516-1.096,0.742c0.033,0.223,0.523,1.039,1.103,1.199c0.072,0.02,0.136,0.035,0.198,0.049v-0.486h3.129
	c1.7-0.346,3.546-0.973,3.707-1.807c0,0-0.585-0.311-1.248-0.254v-1.086c-0.001,0-0.004,0-0.005,0.002
	c0.001-0.217,0.004-0.779,0.006-0.953c0.562-0.055,1.27,0.061,1.683,0.391c0.008,0.008,0.016,0.014,0.023,0.021
	c0.05,0.059,0.244,0.301,0.244,0.455v3.043c0,0-0.033,0.082-0.107,0.188h2.08V35.79h11.466l-0.007-0.012l0.057,0.018h0.089
	c-0.074-0.105-0.106-0.188-0.106-0.188v-3.043c0-0.094,0.07-0.219,0.137-0.316c0.409-0.377,1.166-0.504,1.813-0.461
	c0,0.119,0.002,0.422,0.002,0.668H34.24v1.279c-0.664-0.057-1.25,0.254-1.25,0.254c0.162,0.834,2.009,1.461,3.708,1.807h3.103v0.729
	c0.082-0.049,0.155-0.096,0.211-0.148v0.002c0.394-0.205,0.72-0.742,0.796-0.988C40.905,35.085,40.581,34.774,40.32,34.552
	L40.32,34.552z M27.347,20.526l0.019,0.053c1.531-0.762,2.869-1.428,2.99-1.484c0.293-0.139,0.468-0.464,0.468-0.464
	s-0.361-0.068-0.654,0.073c-0.125,0.057-1.583,0.715-3.21,1.449C27.095,20.267,27.229,20.384,27.347,20.526L27.347,20.526z
	 M21.674,19.372c-0.099-0.012-0.158-0.189-0.046-0.268c0,0-0.205-0.127-0.232,0.143c0,0-0.148-0.129-0.284-0.035
	c0.02,0.166,0.218,0.188,0.218,0.188c-0.183,0.199,0.05,0.268,0.05,0.268c-0.018-0.135,0.15-0.209,0.229-0.145
	c0.077,0.063,0.022,0.238-0.071,0.33c-0.109,0.105-0.274,0.127-0.395,0.072c-0.22-0.098-0.282-0.436-0.139-0.756
	c0.141-0.322,0.436-0.503,0.657-0.406c0.116,0.053,0.205,0.195,0.21,0.336C21.876,19.231,21.773,19.386,21.674,19.372L21.674,19.372
	z M23.135,19.667c-0.038-0.16-0.181-0.066-0.181-0.066c-0.19-0.262-0.539-0.352-0.539-0.352c-0.034-0.059-0.125-0.119-0.205-0.164
	c-0.037-0.27-0.185-0.501-0.422-0.606c-0.354-0.158-0.785,0.018-1.028,0.394c-0.023-0.029-0.056-0.057-0.097-0.074
	c-0.117-0.055-0.247-0.014-0.292,0.088c-0.044,0.104,0.013,0.229,0.128,0.279c0.04,0.02,0.083,0.023,0.123,0.02
	c-0.119,0.432,0.04,0.871,0.394,1.029c0.238,0.107,0.509,0.059,0.735-0.096c0.086,0.029,0.193,0.057,0.259,0.045
	c0,0,0.299,0.197,0.621,0.164c0,0,0.023,0.17,0.169,0.09c0,0,0.211,0.273,0.531,0.189c0,0,0.1,0.041,0.271,0.111
	c0.027-0.076,0.066-0.189,0.067-0.191c0.127-0.15,0.261-0.277,0.391-0.387c-0.272-0.129-0.431-0.205-0.431-0.205
	C23.479,19.638,23.135,19.667,23.135,19.667L23.135,19.667z M20.76,23.665c0.082-0.039,0.142-0.1,0.172-0.164
	c0.072,0.012,0.168,0.012,0.272-0.008c0.118-0.023,0.965-0.396,1.369-0.57c0,0,0.002,0.002,0.005,0.006
	c0.175,0.26,0.442,0.598,0.671,0.723c0.334,0.191,0.48,0.131,0.547,0.018c0.065-0.115-0.033-0.313-0.299-0.445
	c-0.165-0.082-0.364-0.262-0.519-0.441c0-0.002-0.001-0.002-0.002-0.002c0.216-0.107,0.624-0.309,1.078-0.533
	c-0.015-0.012-0.029-0.02-0.038-0.027c-0.022-0.014-0.026-0.029-0.032-0.057c-0.057-0.088-0.077-0.184-0.077-0.242
	c0,0,0-0.018,0.002-0.035c-0.003-0.023-0.019-0.111-0.019-0.111s-0.02-0.092-0.046-0.211c-0.5,0.227-0.951,0.434-1.185,0.537h-0.001
	c-0.042-0.236-0.057-0.502-0.018-0.678c0.065-0.293-0.025-0.492-0.155-0.514c-0.129-0.023-0.271,0.055-0.335,0.432
	c-0.043,0.258,0.05,0.674,0.14,0.977c0.002,0,0.002,0.002,0.003,0.004c-0.392,0.203-1.217,0.627-1.312,0.705
	c-0.08,0.066-0.141,0.143-0.178,0.205c-0.069-0.018-0.153-0.01-0.234,0.029c-0.154,0.072-0.233,0.221-0.182,0.334
	C20.441,23.706,20.607,23.739,20.76,23.665L20.76,23.665z M25.868,32.497c-0.205,0.15-0.493,0.1-0.637-0.105
	c-0.147-0.203-0.099-0.49,0.107-0.639c0.205-0.146,0.491-0.098,0.639,0.107C26.122,32.065,26.076,32.353,25.868,32.497
	L25.868,32.497z M26.913,31.983c-0.078-0.113-0.388-0.004-0.474,0.047l-0.177,0.025l-0.106-0.102c-0.02-0.049-0.017-0.1,0.011-0.141
	c0.03-0.055,0.094-0.088,0.167-0.096c0.097-0.008,0.417-0.098,0.417-0.234c0-0.115-0.124-0.336-0.324-0.48
	c-0.204-0.146-0.445-0.201-0.554-0.168c-0.133,0.041-0.124,0.367-0.103,0.467c0.015,0.072,0,0.145-0.042,0.195
	c-0.034,0.035-0.08,0.053-0.131,0.051l-0.131-0.072l-0.024-0.174c0.021-0.092,0.034-0.426-0.097-0.467
	c-0.11-0.035-0.354,0.016-0.554,0.16c-0.203,0.146-0.331,0.361-0.333,0.473c-0.001,0.139,0.316,0.232,0.413,0.242l0.157,0.086
	l0.026,0.143c-0.013,0.053-0.044,0.088-0.09,0.109c-0.058,0.023-0.129,0.016-0.193-0.021c-0.085-0.055-0.393-0.17-0.475-0.055
	c-0.069,0.092-0.096,0.342-0.02,0.574c0.077,0.242,0.24,0.428,0.349,0.463c0.132,0.045,0.316-0.225,0.357-0.316
	c0.03-0.07,0.085-0.119,0.149-0.133c0.048-0.012,0.097,0.004,0.133,0.037c0.001,0,0.065,0.135,0.065,0.135s-0.08,0.152-0.081,0.152
	c-0.061,0.055-0.216,0.246-0.216,0.371c0,0.023,0.006,0.049,0.019,0.066c0.068,0.094,0.297,0.195,0.542,0.195h0.002
	c0.249,0,0.477-0.098,0.546-0.188c0.014-0.02,0.019-0.041,0.019-0.066c0-0.125-0.15-0.318-0.209-0.371l-0.08-0.162l0.065-0.131
	c0.04-0.035,0.087-0.047,0.137-0.035c0.061,0.016,0.114,0.063,0.143,0.131c0.039,0.096,0.219,0.367,0.352,0.324
	c0.113-0.035,0.28-0.221,0.356-0.455C27.002,32.323,26.98,32.079,26.913,31.983L26.913,31.983z M26.791,29.091v-0.6h0.379
	c0.163,0.217,0.275,0.434,0.344,0.6H26.791L26.791,29.091z M26.791,28.099c0.061,0.053,0.119,0.104,0.171,0.156h-0.171V28.099
	L26.791,28.099z M26.553,28.255H25.8v-0.582c0.293,0.041,0.543,0.139,0.753,0.262V28.255L26.553,28.255z M26.553,29.091H25.8v-0.6
	h0.753V29.091L26.553,29.091z M25.56,28.255h-0.753v-0.273c0.208-0.135,0.458-0.24,0.753-0.293V28.255L25.56,28.255z M25.56,29.091
	h-0.751v-0.6h0.751V29.091L25.56,29.091z M24.569,28.255H24.47c0.03-0.033,0.063-0.063,0.099-0.09V28.255L24.569,28.255z
	 M24.569,29.091h-0.654c0.068-0.162,0.179-0.383,0.347-0.6h0.307V29.091L24.569,29.091z M30.356,30.442v-1.057
	c0-0.025,0.015-0.076,0.107-0.092c0.002-0.002,0.003-0.006,0.003-0.014c0-0.021-0.008-0.055-0.022-0.084
	c-0.139-0.264-0.251-0.652-0.257-0.684c0,0-0.123-2.301-0.123-2.303c0-0.211,0.197-0.488,0.235-0.541v-0.66
	c0-0.012-0.034-0.037-0.045-0.041h-0.196c-0.034,0-0.045,0.02-0.045,0.012v0.055l-0.032,0.016l-0.091-0.016l-0.031-0.012
	c0,0-0.001-0.066-0.026-0.07l-0.227,0.016v0.283h-0.325v-0.064l0.006-0.234l-0.257,0.004l-0.004,0.066l-0.029,0.012l-0.091,0.016
	l-0.034-0.016l0.004-0.037c-0.004-0.01-0.013-0.029-0.049-0.029l-0.177-0.002c-0.03,0.006-0.064,0.031-0.064,0.043l0,0.662
	c0.021,0.033,0.186,0.299,0.186,0.299l-0.278,0.002c0,0-0.093,0-0.099,0.016v0.285h-0.489v-0.059L27.9,25.981h-0.402
	c0,0-0.04,0.004-0.04-0.002l0,0.293l-0.485,0.002v-0.061v-1.064c0.004-0.18,0.16-0.566,0.162-0.557v-0.701
	c0-0.094-0.093-0.119-0.089-0.121H26.62c-0.066,0-0.08,0.041-0.08,0.063v0.227h-0.15v-0.303c0-0.039-0.036-0.051-0.053-0.051
	l-0.375,0.02v0.334h-0.493v-0.064l-0.021-0.289h-0.349c-0.017,0-0.058,0.008-0.058,0.051v0.303h-0.148v-0.225
	c-0.001-0.023-0.016-0.064-0.083-0.064l-0.412-0.004c-0.009,0.006-0.104,0.031-0.104,0.125l-0.004,0.676
	c0.007,0.016,0.162,0.402,0.167,0.582v1.123h-0.486v-0.059l0.004-0.227l-0.045-0.006l-0.403,0.012v0.279h-0.489v-0.059l-0.008-0.242
	l-0.259-0.002l-0.114,0.006c0,0,0.17-0.271,0.189-0.305v-0.662c0-0.012-0.035-0.037-0.047-0.041h-0.196
	c-0.034,0-0.045,0.02-0.045,0.012v0.055l-0.033,0.016l-0.092-0.016l-0.029-0.012c0,0-0.001-0.066-0.027-0.07l-0.227,0.016v0.283
	h-0.324v-0.064l0.005-0.234l-0.256,0.004l-0.002,0.066l-0.028,0.012l-0.092,0.016l-0.033-0.016l0.004-0.037
	c-0.004-0.01-0.015-0.029-0.05-0.029l-0.179-0.002c-0.028,0.006-0.063,0.031-0.063,0.043v0.66c0.037,0.053,0.235,0.328,0.235,0.541
	v0.004c0,0-0.122,2.299-0.124,2.313c-0.006,0.018-0.117,0.408-0.256,0.67c-0.018,0.039-0.026,0.09-0.027,0.098
	c0.101,0.016,0.113,0.066,0.113,0.092v1.057h1.832V30.13h0.913c0-0.105,0.01-0.787,0.01-0.787s0.002-0.006,0.004-0.016h0.738v0.211
	h-0.121l0.239,0.408l0.238-0.408h-0.118v-0.211h0.753v0.211h-0.12l0.24,0.408l0.236-0.408H25.8v-0.211h0.753v0.211h-0.12
	l0.238,0.408l0.238-0.408h-0.119v-0.211h0.807c0.005,0.016,0.007,0.029,0.007,0.031c0,0,0.008,0.666,0.01,0.771h0.911v0.313H30.356
	L30.356,30.442z M19.425,23.032l0.262-0.002v-0.49c0-2.316-0.01-3.985-0.012-4.44h5.982h5.958c-0.002,0.455-0.011,2.124-0.011,4.44
	v0.527l0.26-0.006c-0.001-3.016,0.014-5.063,0.014-5.093l0.002-0.133h-0.133h-6.089h-6.244v0.133
	C19.413,17.998,19.427,20.015,19.425,23.032L19.425,23.032z M26.173,33.522c0.361,0.195,0.535,0.143,0.535,0.143
	c0.068-0.133,0.005-0.527,0.005-0.527c-0.166,0.172-0.394-0.023-0.394-0.023C26.405,33.429,26.173,33.522,26.173,33.522
	L26.173,33.522z"/>
<path fill-rule="evenodd" clip-rule="evenodd" d="M25.511,46.052c-11.343,0-20.54-9.197-20.54-20.541
	c0-11.343,9.197-20.539,20.54-20.539c11.343,0,20.54,9.196,20.54,20.539C46.051,36.854,36.854,46.052,25.511,46.052L25.511,46.052z
	 M25.511,0C11.421,0,0,11.422,0,25.511c0,14.092,11.421,25.514,25.511,25.514c14.088,0,25.513-11.422,25.513-25.514
	C51.023,11.422,39.599,0,25.511,0L25.511,0z"/>
<path fill-rule="evenodd" clip-rule="evenodd" d="M63.742,22.37h2.367l-0.855-4.331c-0.051-0.253-0.102-0.604-0.178-0.982
	c-0.074-0.655-0.1-0.982-0.125-1.84c-0.051,0.857-0.076,1.21-0.152,1.84c-0.074,0.352-0.125,0.705-0.176,0.982L63.742,22.37
	L63.742,22.37z M61.727,12.271h6.398l4.607,18.157h-5.137l-0.957-4.635h-3.4l-0.957,4.635h-5.137L61.727,12.271L61.727,12.271z"/>
<path fill-rule="evenodd" clip-rule="evenodd" d="M84.475,15.998c-0.832-0.276-1.436-0.377-2.09-0.377
	c-2.469,0-3.551,1.787-3.551,5.866c0,3.906,1.107,5.643,3.602,5.643c0.807,0,1.637-0.176,2.594-0.631l0.428,3.479
	c-1.535,0.527-2.871,0.779-4.23,0.779c-4.861,0-7.605-3.375-7.605-9.318c0-5.919,2.795-9.444,7.555-9.444
	c1.311,0,2.594,0.227,3.904,0.705L84.475,15.998L84.475,15.998z"/>
<polygon fill-rule="evenodd" clip-rule="evenodd" points="87.148,12.271 100.043,12.271 100.043,15.722 96.115,16.049 
	96.115,30.429 91.027,30.429 91.027,16.049 87.148,15.696 87.148,12.271 "/>
<path fill-rule="evenodd" clip-rule="evenodd" d="M60.978,33.474c-0.461-0.314-0.866-0.461-1.299-0.461
	c-0.507,0-0.957,0.262-1.183,0.713c-0.232,0.451-0.334,1.047-0.334,2.021c0,0.893,0.091,1.379,0.308,1.84
	c0.224,0.459,0.657,0.701,1.243,0.701c0.345,0,0.631-0.07,0.976-0.242v-2.049h-1.381v-0.656h2.282v3.211
	c-0.883,0.35-1.362,0.467-1.957,0.467c-1.65,0-2.488-1.09-2.488-3.256c0-2.271,0.838-3.451,2.443-3.451
	c0.613,0,1.129,0.178,1.695,0.559L60.978,33.474L60.978,33.474z"/>
<path fill-rule="evenodd" clip-rule="evenodd" d="M63.309,36.649c0,1.145,0.36,1.74,1.055,1.74c0.685,0,1.045-0.605,1.045-1.74
	c0-1.129-0.36-1.725-1.045-1.725C63.669,34.925,63.309,35.521,63.309,36.649L63.309,36.649z M64.363,34.276
	c1.289,0,1.957,0.813,1.957,2.373c0,1.568-0.668,2.381-1.957,2.381c-1.291,0-1.958-0.813-1.958-2.381
	C62.405,35.089,63.072,34.276,64.363,34.276L64.363,34.276z"/>
<path fill-rule="evenodd" clip-rule="evenodd" d="M67.453,34.276l1.002,3.381c0.045,0.137,0.079,0.316,0.116,0.568
	c0.034-0.252,0.091-0.486,0.116-0.568l0.976-3.273h0.875l-1.452,4.529h-1.092l-1.443-4.52L67.453,34.276L67.453,34.276z"/>
<path fill-rule="evenodd" clip-rule="evenodd" d="M71.645,36.351h2.035v-0.02c0-0.918-0.352-1.406-0.988-1.406
	C72.031,34.925,71.66,35.44,71.645,36.351L71.645,36.351z M71.716,36.937c0.071,0.902,0.595,1.398,1.442,1.398
	c0.307,0,0.623-0.064,1.047-0.227l0.162,0.65c-0.479,0.16-0.947,0.252-1.397,0.252c-1.407,0-2.202-0.895-2.202-2.426
	c0-1.434,0.721-2.309,1.932-2.309c1.172,0,1.82,0.813,1.82,2.264c0,0.088,0,0.217-0.008,0.396H71.716L71.716,36.937z"/>
<path fill-rule="evenodd" clip-rule="evenodd" d="M75.305,34.394l0.856-0.037v0.361c0.379-0.297,0.657-0.406,1.126-0.406
	l-0.098,0.822c-0.127-0.027-0.19-0.027-0.291-0.027c-0.287,0-0.504,0.063-0.737,0.234v3.572h-0.856V34.394L75.305,34.394z"/>
<path fill-rule="evenodd" clip-rule="evenodd" d="M77.83,34.394l0.84-0.117V34.7c0.479-0.307,0.884-0.441,1.316-0.441
	c0.424,0,0.803,0.135,1.055,0.377c0.262,0.254,0.352,0.533,0.352,1.127v3.15h-0.848v-2.961c0-0.17-0.008-0.313-0.037-0.414
	c-0.063-0.342-0.377-0.568-0.801-0.568c-0.326,0-0.66,0.127-1.028,0.389v3.555H77.83V34.394L77.83,34.394z"/>
<path fill-rule="evenodd" clip-rule="evenodd" d="M82.385,34.394l0.848-0.1v0.342c0.416-0.26,0.774-0.377,1.153-0.377
	c0.38,0,0.731,0.117,0.965,0.342c0.063,0.063,0.108,0.1,0.183,0.217c0.469-0.361,0.92-0.541,1.389-0.541
	c0.414,0,0.776,0.145,1.019,0.396c0.252,0.27,0.333,0.523,0.333,1.127v3.113h-0.848v-2.924c0-0.189-0.008-0.324-0.026-0.434
	c-0.063-0.342-0.379-0.586-0.769-0.586c-0.305,0-0.575,0.127-0.893,0.404v3.539h-0.846v-2.904c0-0.236,0-0.354-0.011-0.443
	c-0.054-0.342-0.377-0.596-0.793-0.596c-0.308,0-0.56,0.1-0.856,0.344v3.6h-0.848V34.394L82.385,34.394z"/>
<path fill-rule="evenodd" clip-rule="evenodd" d="M89.962,36.351h2.04v-0.02c0-0.918-0.352-1.406-0.991-1.406
	C90.352,34.925,89.982,35.44,89.962,36.351L89.962,36.351z M90.035,36.937c0.072,0.902,0.595,1.398,1.443,1.398
	c0.307,0,0.622-0.064,1.047-0.227l0.163,0.65c-0.479,0.16-0.948,0.252-1.399,0.252c-1.406,0-2.199-0.895-2.199-2.426
	c0-1.434,0.721-2.309,1.93-2.309c1.172,0,1.82,0.813,1.82,2.264c0,0.088,0,0.217-0.008,0.396H90.035L90.035,36.937z"/>
<path fill-rule="evenodd" clip-rule="evenodd" d="M93.625,34.394l0.838-0.117V34.7c0.479-0.307,0.885-0.441,1.316-0.441
	c0.425,0,0.804,0.135,1.056,0.377c0.263,0.254,0.353,0.533,0.353,1.127v3.15H96.34v-2.961c0-0.17-0.011-0.313-0.037-0.414
	c-0.064-0.342-0.379-0.568-0.803-0.568c-0.326,0-0.656,0.127-1.027,0.389v3.555h-0.848V34.394L93.625,34.394z"/>
<path fill-rule="evenodd" clip-rule="evenodd" d="M97.744,34.384h0.558v-0.748l0.849-0.135v0.883h0.893v0.568l-0.885,0.082v2.705
	c0,0.172,0,0.252,0.01,0.316c0.017,0.188,0.172,0.307,0.406,0.307c0.143,0,0.278-0.027,0.469-0.092v0.615
	c-0.235,0.082-0.478,0.125-0.739,0.125c-0.353,0-0.632-0.098-0.804-0.26c-0.145-0.154-0.198-0.371-0.198-0.76v-2.977l-0.558-0.053
	V34.384L97.744,34.384z"/>
</svg>
